<?xml version="1.0" encoding="iso-8859-1"?>
<!-- Generator: Adobe Illustrator 16.0.0, SVG Export Plug-In . SVG Version: 6.00 Build 0)  -->
<!DOCTYPE svg PUBLIC "-//W3C//DTD SVG 1.1//EN" "http://www.w3.org/Graphics/SVG/1.1/DTD/svg11.dtd">
<svg version="1.1" id="Capa_1" xmlns="http://www.w3.org/2000/svg" xmlns:xlink="http://www.w3.org/1999/xlink" x="0px" y="0px"
	 width="72px" height="72px" viewBox="0 0 544.992 544.992" style="enable-background:new 0 0 544.992 544.992;"
	 xml:space="preserve">
<g>
	<g>
		<path d="M544.734,418.164l-7.306-20.227c0.028-0.559-0.05-1.125-0.249-1.682c-0.2-0.561-0.508-1.057-0.89-1.469L414.084,56.446
			c-0.089-0.253-0.204-0.494-0.338-0.722c-0.704-1.431-2.176-2.415-3.878-2.415h-47.386h-71.126h-3.028h-31.663h-3.027h-71.127
			h-47.094c-0.076,0-0.15,0.002-0.226,0.005c-0.7-0.032-1.406,0.101-2.056,0.404c-1.037,0.487-1.838,1.366-2.229,2.443
			L0.258,417.883c-0.81,2.244,0.353,4.721,2.597,5.531l82.767,29.895c1.078,0.391,2.267,0.334,3.303-0.15
			c1.038-0.488,1.839-1.367,2.227-2.443l7.877-21.807l0.002-0.002v-0.002l32.067-88.783v147.24c0,2.387,1.933,4.322,4.321,4.322
			h274.451c2.387,0,4.32-1.936,4.32-4.322V341.209l39.652,109.787c0.389,1.078,1.19,1.957,2.229,2.443
			c1.037,0.484,2.227,0.541,3.304,0.15l82.765-29.895C544.382,422.885,545.545,420.408,544.734,418.164z M257.958,61.951h29.08
			v14.111h-29.08V61.951z M249.317,61.951v18.431c0,2.388,1.933,4.32,4.321,4.32h37.719c2.387,0,4.32-1.933,4.32-4.32V61.951h62.353
			c-2.236,36.503-32.646,65.513-69.701,65.513h-31.664c-37.057,0-67.464-29.01-69.701-65.513H249.317z M84.494,443.715
			L9.855,416.754l4.882-13.512l74.69,26.809L84.494,443.715z M139.738,316.072c0.013-0.089,0.038-0.168,0.046-0.257l13.118-150.191
			c0.207-2.377-1.553-4.473-3.929-4.681c-2.381-0.214-4.472,1.552-4.681,3.929l-13.048,149.396L92.363,421.92l-74.694-26.807
			L138.005,61.951h40.309c2.252,41.269,36.531,74.153,78.352,74.153H307.3v15.193h-50.634c-2.388,0-4.32,1.935-4.32,4.321v327.421
			H139.738V316.072z M260.986,159.938h23.022v323.103h-23.022V159.938z M413.931,315.06c-0.036-0.104-0.094-0.196-0.139-0.299
			l-13.09-149.888c-0.208-2.376-2.282-4.141-4.679-3.929c-2.377,0.208-4.138,2.304-3.931,4.681l13.117,150.191
			c0.039,0.459,0.166,0.89,0.336,1.291v165.935H292.65V159.938h18.971c2.387,0,4.321-1.935,4.321-4.32v-23.836
			c0-0.238-0.032-0.47-0.07-0.698c28.437-10.694,49.068-37.431,50.801-69.134h40.214l120.377,333.278l-74.691,26.809L413.931,315.06
			z M460.501,443.996l-4.996-13.832l74.693-26.809l4.939,13.68L460.501,443.996z"/>
		<path d="M224.447,364.934c-1.686-1.688-4.422-1.688-6.109,0l-59.457,59.459c-1.688,1.686-1.688,4.422,0,6.109
			c0.844,0.844,1.949,1.266,3.055,1.266s2.211-0.422,3.055-1.266l59.457-59.459C226.136,369.356,226.136,366.621,224.447,364.934z"
			/>
		<path d="M326.655,364.934c-1.688-1.688-4.422-1.688-6.11,0c-1.688,1.688-1.688,4.424,0,6.109l59.46,59.459
			c0.843,0.844,1.949,1.266,3.054,1.266c1.106,0,2.212-0.422,3.057-1.266c1.687-1.688,1.687-4.424,0-6.109L326.655,364.934z"/>
		<circle cx="297.174" cy="143.699" r="6.178"/>
	</g>
</g>
<g>
</g>
<g>
</g>
<g>
</g>
<g>
</g>
<g>
</g>
<g>
</g>
<g>
</g>
<g>
</g>
<g>
</g>
<g>
</g>
<g>
</g>
<g>
</g>
<g>
</g>
<g>
</g>
<g>
</g>
</svg>
