<?xml version="1.0" encoding="iso-8859-1"?>
<!-- Generator: Adobe Illustrator 19.0.0, SVG Export Plug-In . SVG Version: 6.00 Build 0)  -->
<svg version="1.1" id="Capa_1" xmlns="http://www.w3.org/2000/svg" xmlns:xlink="http://www.w3.org/1999/xlink" x="0px" y="0px" width="72px" height="72px"
	 viewBox="0 0 364.167 364.167" style="enable-background:new 0 0 364.167 364.167;" xml:space="preserve">
<path d="M364.167,112.917H338.75h-15H40.417h-15H0v52.501h25.417v42.902c0,23.672,19.258,42.931,42.93,42.931h59.896
	c23.672,0,42.93-19.259,42.93-42.931v-20.295c0-6.033,4.909-10.941,10.942-10.941h0.373c6.033,0,10.942,4.908,10.942,10.941v26.133
	l0.083,0.553c3.121,20.831,21.354,36.54,42.412,36.54h59.896c23.672,0,42.93-19.259,42.93-42.931v-42.902h25.417V112.917z
	 M15,150.417v-22.501h10.417v22.501H15z M323.75,208.32c0,15.401-12.529,27.931-27.93,27.931h-59.896
	c-13.517,0-25.243-9.956-27.494-23.244v-24.981c0-14.304-11.638-25.941-25.942-25.941h-0.373c-14.304,0-25.942,11.638-25.942,25.941
	v20.295c0,15.401-12.529,27.931-27.93,27.931H68.347c-15.401,0-27.93-12.529-27.93-27.931v-42.902v-27.269l22.363,22.363
	l10.606-10.607l-21.988-21.988h26.586l32.595,32.596l10.606-10.607l-21.988-21.988h26.586l32.596,32.596l10.606-10.607
	l-21.988-21.988h26.586l32.596,32.596l10.606-10.607l-21.988-21.988h26.586l32.596,32.596l10.606-10.607l-21.988-21.988h26.586
	l32.596,32.596l10.606-10.607l-21.988-21.988h33.352v37.501V208.32z M349.167,150.417H338.75v-22.501h10.417V150.417z"/>
<g>
</g>
<g>
</g>
<g>
</g>
<g>
</g>
<g>
</g>
<g>
</g>
<g>
</g>
<g>
</g>
<g>
</g>
<g>
</g>
<g>
</g>
<g>
</g>
<g>
</g>
<g>
</g>
<g>
</g>
</svg>
